<svg xmlns="http://www.w3.org/2000/svg" class="illo " viewBox="0 0 320 200" role="img" aria-labelledby="tg2"><title id="tg2">첫 글을 넣어 보자 — 칠한다</title><defs><pattern id="g2" width="24" height="24" patternUnits="userSpaceOnUse"><path d="M24 0H0V24" style="fill:none;stroke:var(--grid-line);stroke-width:1"/></pattern></defs><g data-layer="stage"><rect x="0.5" y="0.5" width="319" height="199" rx="6" style="fill:var(--bg)"/><rect x="0.5" y="0.5" width="319" height="199" rx="6" style="fill:url(#g2);stroke:var(--bd);stroke-width:1"/></g><g data-layer="main"><rect x="72" y="36" width="216" height="120" rx="2" style="fill:var(--bg);stroke:var(--t1);stroke-width:1.5;stroke-linecap:round;stroke-linejoin:round" vector-effect="non-scaling-stroke"/><line x1="96" y1="36" x2="96" y2="156" style="fill:none;stroke:var(--bd);stroke-width:1" vector-effect="non-scaling-stroke"/><line x1="120" y1="36" x2="120" y2="156" style="fill:none;stroke:var(--bd);stroke-width:1" vector-effect="non-scaling-stroke"/><line x1="144" y1="36" x2="144" y2="156" style="fill:none;stroke:var(--bd);stroke-width:1" vector-effect="non-scaling-stroke"/><line x1="168" y1="36" x2="168" y2="156" style="fill:none;stroke:var(--bd);stroke-width:1" vector-effect="non-scaling-stroke"/><line x1="192" y1="36" x2="192" y2="156" style="fill:none;stroke:var(--bd);stroke-width:1" vector-effect="non-scaling-stroke"/><line x1="216" y1="36" x2="216" y2="156" style="fill:none;stroke:var(--bd);stroke-width:1" vector-effect="non-scaling-stroke"/><line x1="240" y1="36" x2="240" y2="156" style="fill:none;stroke:var(--bd);stroke-width:1" vector-effect="non-scaling-stroke"/><line x1="264" y1="36" x2="264" y2="156" style="fill:none;stroke:var(--bd);stroke-width:1" vector-effect="non-scaling-stroke"/><line x1="72" y1="60" x2="288" y2="60" style="fill:none;stroke:var(--bd);stroke-width:1" vector-effect="non-scaling-stroke"/><line x1="72" y1="84" x2="288" y2="84" style="fill:none;stroke:var(--bd);stroke-width:1" vector-effect="non-scaling-stroke"/><line x1="72" y1="108" x2="288" y2="108" style="fill:none;stroke:var(--bd);stroke-width:1" vector-effect="non-scaling-stroke"/><line x1="72" y1="132" x2="288" y2="132" style="fill:none;stroke:var(--bd);stroke-width:1" vector-effect="non-scaling-stroke"/></g><g data-layer="minor"><text x="96" y="52" text-anchor="middle" style="font-family:Lora,serif;font-size:12px;font-weight:500;fill:var(--t1)">Once</text><text x="168" y="52" text-anchor="middle" style="font-family:Lora,serif;font-size:12px;font-weight:500;fill:var(--t1)">upon</text><text x="228" y="52" text-anchor="middle" style="font-family:Lora,serif;font-size:12px;font-weight:500;fill:var(--t1)">a</text><rect x="24" y="132" width="64" height="40" rx="1" style="fill:var(--bg2);stroke:var(--t1);stroke-width:1.5;stroke-linecap:round;stroke-linejoin:round" vector-effect="non-scaling-stroke"/><text x="56" y="150" text-anchor="middle" style="font-family:Lora,serif;font-size:10px;font-weight:500;fill:var(--t1)">Once upon</text><text x="56" y="164" text-anchor="middle" style="font-family:Lora,serif;font-size:10px;font-weight:500;fill:var(--t1)">a time…</text></g><g data-layer="story"><path d="M56 132 C 56 96 60 60 72 50" style="fill:none;stroke:var(--t1);stroke-width:1;stroke-linecap:round;stroke-linejoin:round" vector-effect="non-scaling-stroke"/></g><g data-layer="accent"><rect x="147" y="40" width="42" height="16" transform="skewX(-9)" transform-origin="168 48" style="fill:var(--ju-wash)"/></g></svg>
