<svg xmlns="http://www.w3.org/2000/svg" class="illo " viewBox="0 0 240 240" role="img" aria-labelledby="tg8"><title id="tg8">근거가 정답을 가리킨다 — 가리킨다</title><defs><pattern id="g8" width="24" height="24" patternUnits="userSpaceOnUse"><path d="M24 0H0V24" style="fill:none;stroke:var(--grid-line);stroke-width:1"/></pattern></defs><g data-layer="stage"><rect x="0.5" y="0.5" width="239" height="239" rx="6" style="fill:var(--bg)"/><rect x="0.5" y="0.5" width="239" height="239" rx="6" style="fill:url(#g8);stroke:var(--bd);stroke-width:1"/></g><g data-layer="main"><rect x="24" y="28" width="192" height="72" rx="2" style="fill:var(--bg);stroke:var(--t1);stroke-width:1.5;stroke-linecap:round;stroke-linejoin:round" vector-effect="non-scaling-stroke"/><line x1="48" y1="28" x2="48" y2="100" style="fill:none;stroke:var(--bd);stroke-width:1" vector-effect="non-scaling-stroke"/><line x1="72" y1="28" x2="72" y2="100" style="fill:none;stroke:var(--bd);stroke-width:1" vector-effect="non-scaling-stroke"/><line x1="96" y1="28" x2="96" y2="100" style="fill:none;stroke:var(--bd);stroke-width:1" vector-effect="non-scaling-stroke"/><line x1="120" y1="28" x2="120" y2="100" style="fill:none;stroke:var(--bd);stroke-width:1" vector-effect="non-scaling-stroke"/><line x1="144" y1="28" x2="144" y2="100" style="fill:none;stroke:var(--bd);stroke-width:1" vector-effect="non-scaling-stroke"/><line x1="168" y1="28" x2="168" y2="100" style="fill:none;stroke:var(--bd);stroke-width:1" vector-effect="non-scaling-stroke"/><line x1="192" y1="28" x2="192" y2="100" style="fill:none;stroke:var(--bd);stroke-width:1" vector-effect="non-scaling-stroke"/><line x1="24" y1="52" x2="216" y2="52" style="fill:none;stroke:var(--bd);stroke-width:1" vector-effect="non-scaling-stroke"/><line x1="24" y1="76" x2="216" y2="76" style="fill:none;stroke:var(--bd);stroke-width:1" vector-effect="non-scaling-stroke"/><rect x="24" y="116" width="192" height="100" rx="2" style="fill:var(--bg);stroke:var(--t1);stroke-width:1.5;stroke-linecap:round;stroke-linejoin:round" vector-effect="non-scaling-stroke"/></g><g data-layer="minor"><text x="48" y="44" text-anchor="middle" style="font-family:Lora,serif;font-size:12px;font-weight:500;fill:var(--t1)">the</text><text x="96" y="44" text-anchor="middle" style="font-family:Lora,serif;font-size:12px;font-weight:500;fill:var(--t1)">town</text><text x="144" y="44" text-anchor="middle" style="font-family:Lora,serif;font-size:12px;font-weight:500;fill:var(--t1)">kept</text><text x="192" y="44" text-anchor="middle" style="font-family:Lora,serif;font-size:12px;font-weight:500;fill:var(--t1)">its</text><text x="72" y="68" text-anchor="middle" style="font-family:Lora,serif;font-size:12px;font-weight:500;fill:var(--t1)">promise</text><text x="36" y="136" text-anchor="start" style="font-family:'JetBrains Mono',serif;font-size:10px;font-weight:400;fill:var(--t1)">①</text><line x1="56" y1="132" x2="120" y2="132" style="fill:none;stroke:var(--bd);stroke-width:1" vector-effect="non-scaling-stroke"/><text x="36" y="154" text-anchor="start" style="font-family:'JetBrains Mono',serif;font-size:10px;font-weight:400;fill:var(--t1)">②</text><line x1="56" y1="150" x2="160" y2="150" style="fill:none;stroke:var(--bd);stroke-width:1" vector-effect="non-scaling-stroke"/><text x="36" y="172" text-anchor="start" style="font-family:'JetBrains Mono',serif;font-size:10px;font-weight:400;fill:var(--t1)">③</text><line x1="56" y1="168" x2="144" y2="168" style="fill:none;stroke:var(--bd);stroke-width:1" vector-effect="non-scaling-stroke"/><text x="36" y="190" text-anchor="start" style="font-family:'JetBrains Mono',serif;font-size:10px;font-weight:400;fill:var(--t1)">④</text><line x1="56" y1="186" x2="160" y2="186" style="fill:none;stroke:var(--bd);stroke-width:1" vector-effect="non-scaling-stroke"/><text x="36" y="208" text-anchor="start" style="font-family:'JetBrains Mono',serif;font-size:10px;font-weight:400;fill:var(--t1)">⑤</text><line x1="56" y1="204" x2="120" y2="204" style="fill:none;stroke:var(--bd);stroke-width:1" vector-effect="non-scaling-stroke"/><text x="156" y="172" text-anchor="start" style="font-family:Hahmlet,serif;font-size:9.5px;font-weight:500;fill:var(--t1)">약속을 지켰다</text></g><g data-layer="accent"><path d="M104 74 C 136 108 174 138 152 164" style="fill:none;stroke:var(--ju);stroke-width:1.5;stroke-linecap:round;stroke-linejoin:round" vector-effect="non-scaling-stroke"/><path d="M148 157 L152 164 L159 160" style="fill:none;stroke:var(--ju);stroke-width:1.5;stroke-linecap:round;stroke-linejoin:round" vector-effect="non-scaling-stroke"/></g></svg>
